# xmcd
#
# Track frame offsets: 
#        150
#        10502
#        24575
#        40903
#        59676
#        78565
#        97563
#        123693
#        141854
#
# Disc length: 2900 seconds
#
# Revision: 0
# Processed by: cddbd v1.5.2PL0 Copyright (c) Steve Scherf et al.
# Submitted via: ExactAudioCopy v0.99pb5
#
DISCID=6d0b5209
DTITLE=OG Ikonen and Liigalaiska - Vitun Kova Ääni
DYEAR=2010
DGENRE=Rap
TTITLE0=Vitun Kova Ääni
TTITLE1=10 Vuotta
TTITLE2=Kuolleiden Marssi (feat. Jontti)
TTITLE3=Mediapimennos
TTITLE4=Eri Huudi, Sama Buugi (feat. Young Ikonen)
TTITLE5=Miltä Mä Näytän
TTITLE6=Kaheksas (feat. Asa)
TTITLE7=Välitön
TTITLE8=Kasvunpaikka
EXTD=
EXTT0=
EXTT1=
EXTT2=
EXTT3=
EXTT4=
EXTT5=
EXTT6=
EXTT7=
EXTT8=
PLAYORDER=
